<svg xmlns="http://www.w3.org/2000/svg" viewBox="0 0 100 100">
  <path d="M 4 5.2 Q 4 4 5.2 4 L 94.8 4 Q 96 4 96 5.2 L 96 94.8 Q 96 96 94.8 96 L 5.2 96 Q 4 96 4 94.8 Z" fill="#c8372b"/>
  <circle cx="79" cy="19" r="7.4" fill="#fbf6ec"/>
  <circle cx="82.6" cy="16.4" r="6.4" fill="#c8372b"/>
  <g transform="translate(44.6 77) scale(0.9)" fill="#fbf6ec" stroke-linecap="round" stroke-linejoin="round">
    <path d="M 41 -12 C 46 4 24 7.5 4 5.5 C -6 4.6 -14 4 -20 4.6 C -28 5.2 -34 3 -36 -3" fill="none" stroke="#fbf6ec" stroke-width="9"/>
    <path d="M -14 2 C -26 1 -30 -12 -22 -24 C -14 -38 2 -47 18 -45 C 34 -43 44 -30 43 -16 C 42 -4 34 2 22 2 Z"/>
    <path d="M -35.5 -30 C -37.5 -38 -38 -46 -36 -53 C -30 -49 -25.5 -45 -22.5 -40.5 Z"/>
    <path d="M -14.5 -41 C -10 -46 -5.5 -50 0 -52 C 1 -46 0.5 -39 -2 -33 Z"/>
    <ellipse cx="-19" cy="-25" rx="18.5" ry="16" transform="rotate(-6 -19 -25)"/>
    <path d="M -31 -10 C -34 -4 -29 0 -21 0 C -15 0 -12 -3 -14 -7 C -17 -10 -26 -11 -31 -10 Z"/>
    <g fill="none" stroke="#c8372b" stroke-width="2.4">
      <path d="M -2.2 -38 C 3 -30 3 -18 -3 -10"/>
      <path d="M 36 -5 C 33 -16 22 -20 13 -13"/>
      <path d="M 38.4 -8 C 40 2 24 3.2 6 1.2"/>
      <path d="M -30 -26.5 Q -27 -23.6 -24 -26.5"/>
      <path d="M -15.5 -27 Q -12.5 -24.1 -9.5 -27"/>
    </g>
  </g>
</svg>
